<svg width="273" height="48" viewBox="0 0 273 48" fill="none" xmlns="http://www.w3.org/2000/svg">
<g clip-path="url(#clip0_13_2)">
<path d="M128.308 19.0639H118.146V47.8669H128.308V19.0639Z" fill="white"/>
<path d="M71.716 14.822V47.835H60.711V14.822H51.672V5.503H80.755V14.822H71.716Z" fill="white"/>
<path d="M84.2348 5.15313H94.3968V22.6821C95.4995 21.2208 96.946 20.0542 98.6078 19.2861C100.201 18.6743 101.898 18.3785 103.605 18.4151C107.235 18.4151 109.976 19.4165 111.83 21.4191C113.77 23.6626 114.766 26.5702 114.61 29.5321V47.8351H104.446V33.2941C104.474 32.106 104.361 30.9187 104.11 29.7571C103.946 28.9694 103.556 28.247 102.986 27.6791C102.087 26.8926 100.926 26.4718 99.7318 26.5001C98.9989 26.4526 98.2645 26.5663 97.5804 26.8332C96.8962 27.1002 96.2788 27.5138 95.7718 28.0451C94.7818 29.2923 94.2916 30.8633 94.3968 32.4521V47.8351H84.2348V5.15313Z" fill="white"/>
<path d="M131.901 19.032H142.063V22.682C143.166 21.2207 144.612 20.0541 146.274 19.286C147.867 18.6742 149.564 18.3784 151.271 18.4151C153.052 18.369 154.822 18.7038 156.464 19.397C157.883 20.0361 159.14 20.9862 160.142 22.1771C160.947 23.1175 161.524 24.2321 161.826 25.4331C162.142 26.776 162.293 28.1525 162.276 29.532V47.835H152.113V33.294C152.138 32.1352 152.035 30.9772 151.805 29.841C151.645 29.0502 151.265 28.3203 150.71 27.7351C150.286 27.3029 149.767 26.9759 149.194 26.7801C148.614 26.591 148.008 26.4965 147.398 26.5C146.665 26.4525 145.931 26.5662 145.247 26.8331C144.563 27.1001 143.946 27.5138 143.439 28.045C142.448 29.2918 141.957 30.863 142.063 32.452V47.835H131.901V19.032Z" fill="white"/>
<path d="M175.973 5.153V29.42L186.641 19.032H200.564L186.136 32.339L201.408 47.835H187.146L175.973 36.1V47.835H165.811V5.153H175.973Z" fill="white"/>
<path d="M205.842 19.032V13.699C205.831 11.843 206.244 10.0089 207.05 8.33705C207.841 6.68848 208.947 5.21043 210.305 3.98605C211.705 2.73055 213.322 1.74101 215.077 1.06605C218.783 -0.355248 222.883 -0.355248 226.588 1.06605C228.343 1.741 229.96 2.73054 231.36 3.98605C232.718 5.21064 233.824 6.68862 234.616 8.33705C235.423 10.0087 235.836 11.8429 235.824 13.699V47.835H225.661V13.699C225.663 13.0358 225.539 12.3782 225.296 11.761C225.059 11.1545 224.717 10.5943 224.286 10.106C223.858 9.62256 223.344 9.22278 222.77 8.92705C222.17 8.62299 221.506 8.4686 220.833 8.47705C220.152 8.47058 219.479 8.62475 218.868 8.92705C218.293 9.20803 217.778 9.59867 217.352 10.077C216.488 11.0867 216.011 12.3703 216.005 13.699V19.032H221.843V27.511H216.005V47.835H205.842V27.511H202.193V19.032H205.842Z" fill="white"/>
<path d="M238.001 32.1153C237.986 30.0508 238.427 28.0084 239.293 26.1343C240.145 24.2943 241.368 22.6505 242.886 21.3063C244.493 19.8982 246.35 18.8036 248.36 18.0793C250.582 17.2739 252.931 16.8743 255.294 16.8993C257.636 16.8783 259.964 17.2678 262.172 18.0503C264.191 18.7618 266.057 19.8474 267.674 21.2503C269.215 22.6021 270.449 24.2672 271.295 26.1343C272.172 28.1038 272.613 30.2396 272.587 32.3953C272.613 34.5537 272.162 36.6913 271.267 38.6553C270.41 40.5164 269.177 42.1798 267.645 43.5403C266.03 44.9535 264.151 46.0317 262.116 46.7123C259.866 47.4761 257.503 47.8554 255.126 47.8343C252.795 47.8574 250.477 47.4778 248.275 46.7123C246.273 46.0199 244.431 44.9317 242.858 43.5123C241.337 42.1216 240.123 40.4293 239.293 38.5433C238.411 36.5166 237.971 34.3254 238.001 32.1153ZM248.725 32.2273C248.713 33.1437 248.895 34.0523 249.259 34.8933C249.596 35.6737 250.071 36.3868 250.662 36.9983C251.251 37.6041 251.958 38.0823 252.74 38.4033C254.376 39.078 256.213 39.078 257.849 38.4033C258.63 38.0815 259.337 37.6034 259.926 36.9983C260.516 36.3863 260.992 35.6734 261.33 34.8933C261.689 34.0703 261.87 33.1811 261.863 32.2833C261.866 31.4041 261.685 30.5339 261.33 29.7293C260.991 28.9494 260.516 28.2362 259.926 27.6233C259.336 27.0189 258.63 26.5411 257.849 26.2193C256.213 25.5446 254.376 25.5446 252.74 26.2193C251.959 26.5404 251.251 27.0182 250.662 27.6233C250.077 28.2287 249.602 28.9316 249.259 29.7003C248.901 30.4943 248.719 31.3563 248.725 32.2273Z" fill="white"/>
<path d="M41.2846 45.2928V34.7348C41.2846 34.4389 41.1968 34.1497 41.0324 33.9037C40.868 33.6577 40.6343 33.466 40.3609 33.3528C40.0874 33.2397 39.7866 33.2101 39.4964 33.268C39.2063 33.3258 38.9397 33.4685 38.7306 33.6778L27.3326 45.0748C27.1234 45.2841 26.981 45.5506 26.9233 45.8409C26.8656 46.1311 26.8952 46.4319 27.0084 46.7052C27.1217 46.9786 27.3134 47.2123 27.5595 47.3767C27.8055 47.541 28.0947 47.6288 28.3906 47.6288H38.9486C39.5682 47.6288 40.1623 47.3826 40.6004 46.9446C41.0385 46.5065 41.2846 45.9123 41.2846 45.2928Z" fill="#F36F5E"/>
<path d="M38.562 6.3445H2.722C1.99996 6.34468 1.30756 6.63165 0.797098 7.14231C0.286634 7.65296 -8.75161e-05 8.34546 2.00377e-08 9.0675V44.9075C0.000310222 45.6292 0.287223 46.3213 0.797659 46.8315C1.30809 47.3418 2.00027 47.6285 2.722 47.6285H15.661C16.0183 47.6286 16.3722 47.5583 16.7023 47.4215C17.0325 47.2848 17.3324 47.0843 17.585 46.8315L40.487 23.9295C40.7401 23.6769 40.9408 23.3768 41.0778 23.0465C41.2147 22.7162 41.2851 22.3621 41.285 22.0045V9.0675C41.2849 8.34535 40.9979 7.65283 40.4873 7.14219C39.9767 6.63156 39.2841 6.34463 38.562 6.3445Z" fill="#FBB040"/>
</g>
<defs>
<clipPath id="clip0_13_2">
<rect width="272.588" height="47.8669" fill="white"/>
</clipPath>
</defs>
</svg>
